<?xml version="1.0" encoding="iso-8859-1"?>
<!-- Generator: Adobe Illustrator 20.1.0, SVG Export Plug-In . SVG Version: 6.00 Build 0)  -->
<svg xmlns="http://www.w3.org/2000/svg" xmlns:xlink="http://www.w3.org/1999/xlink" version="1.1" id="&#1057;&#1083;&#1086;&#1081;_1" x="0px" y="0px" viewBox="0 0 64 64" style="enable-background:new 0 0 64 64;" xml:space="preserve">
<linearGradient id="SVGID_1__48289" gradientUnits="userSpaceOnUse" x1="32" y1="5.5" x2="32" y2="58.3428" spreadMethod="reflect">
	<stop offset="0" style="stop-color:#1A6DFF"/>
	<stop offset="1" style="stop-color:#C822FF"/>
</linearGradient>
<path style="fill:url(#SVGID_1__48289);" d="M32,58C17.664,58,6,46.336,6,32S17.664,6,32,6s26,11.664,26,26S46.336,58,32,58z M32,8  C18.767,8,8,18.767,8,32s10.767,24,24,24s24-10.767,24-24S45.233,8,32,8z"/>
<linearGradient id="SVGID_2__48289" gradientUnits="userSpaceOnUse" x1="32" y1="5.5" x2="32" y2="58.3428" spreadMethod="reflect">
	<stop offset="0" style="stop-color:#1A6DFF"/>
	<stop offset="1" style="stop-color:#C822FF"/>
</linearGradient>
<path style="fill:url(#SVGID_2__48289);" d="M32,54c-12.131,0-22-9.869-22-22s9.869-22,22-22s22,9.869,22,22S44.131,54,32,54z M32,12  c-11.028,0-20,8.972-20,20s8.972,20,20,20s20-8.972,20-20S43.028,12,32,12z"/>
<linearGradient id="SVGID_3__48289" gradientUnits="userSpaceOnUse" x1="39" y1="5.5" x2="39" y2="58.3428" spreadMethod="reflect">
	<stop offset="0" style="stop-color:#1A6DFF"/>
	<stop offset="1" style="stop-color:#C822FF"/>
</linearGradient>
<path style="fill:url(#SVGID_3__48289);" d="M41,44h-4c-1.654,0-3-1.346-3-3V23c0-1.654,1.346-3,3-3h4c1.654,0,3,1.346,3,3v18  C44,42.654,42.654,44,41,44z M37,22c-0.551,0-1,0.449-1,1v18c0,0.551,0.449,1,1,1h4c0.551,0,1-0.449,1-1V23c0-0.551-0.449-1-1-1H37z  "/>
<linearGradient id="SVGID_4__48289" gradientUnits="userSpaceOnUse" x1="25" y1="5.5" x2="25" y2="58.3428" spreadMethod="reflect">
	<stop offset="0" style="stop-color:#1A6DFF"/>
	<stop offset="1" style="stop-color:#C822FF"/>
</linearGradient>
<path style="fill:url(#SVGID_4__48289);" d="M27,44h-4c-1.654,0-3-1.346-3-3V23c0-1.654,1.346-3,3-3h4c1.654,0,3,1.346,3,3v18  C30,42.654,28.654,44,27,44z M23,22c-0.551,0-1,0.449-1,1v18c0,0.551,0.449,1,1,1h4c0.551,0,1-0.449,1-1V23c0-0.551-0.449-1-1-1H23z  "/>
<linearGradient id="SVGID_5__48289" gradientUnits="userSpaceOnUse" x1="39" y1="23.6667" x2="39" y2="40.6699" spreadMethod="reflect">
	<stop offset="0" style="stop-color:#6DC7FF"/>
	<stop offset="1" style="stop-color:#E6ABFF"/>
</linearGradient>
<rect x="38" y="24" style="fill:url(#SVGID_5__48289);" width="2" height="16"/>
<linearGradient id="SVGID_6__48289" gradientUnits="userSpaceOnUse" x1="25" y1="23.6667" x2="25" y2="40.6699" spreadMethod="reflect">
	<stop offset="0" style="stop-color:#6DC7FF"/>
	<stop offset="1" style="stop-color:#E6ABFF"/>
</linearGradient>
<rect x="24" y="24" style="fill:url(#SVGID_6__48289);" width="2" height="16"/>
</svg>
